<svg xmlns="http://www.w3.org/2000/svg" xmlns:xlink="http://www.w3.org/1999/xlink" fill="none" height="512" viewBox="0 0 24 24" width="512"><linearGradient id="paint0_linear_16_767" gradientUnits="userSpaceOnUse" x1="12" x2="12" y1="1.2" y2="22.8"><stop offset="0" stop-color="#3d66df"/><stop offset=".979167" stop-color="#3d66df"/></linearGradient><path d="m3 3h18c.2652 0 .5196.10536.7071.29289.1875.18754.2929.44189.2929.70711v16c0 .2652-.1054.5196-.2929.7071s-.4419.2929-.7071.2929h-18c-.26522 0-.51957-.1054-.70711-.2929-.18753-.1875-.29289-.4419-.29289-.7071v-16c0-.26522.10536-.51957.29289-.70711.18754-.18753.44189-.29289.70711-.29289zm17 8h-16v8h16zm0-2v-4h-16v4zm-11-3h2v2h-2zm-4 0h2v2h-2z" fill="url(#paint0_linear_16_767)"/></svg>