<svg fill="none" height="512" viewBox="0 0 24 24" width="512" xmlns="http://www.w3.org/2000/svg" xmlns:xlink="http://www.w3.org/1999/xlink"><linearGradient id="paint0_linear_16_1047" gradientUnits="userSpaceOnUse" x1="12" x2="12" y1="0" y2="24"><stop offset="0" stop-color="#ce9ffc"/><stop offset=".979167" stop-color="#7367f0"/></linearGradient><path d="m12 2 4.243 4.243-1.415 1.414-2.828-2.829-2.828 2.829-1.415-1.414zm-10 10 4.243-4.243 1.414 1.415-2.829 2.828 2.829 2.828-1.414 1.415zm20 0-4.243 4.243-1.414-1.415 2.829-2.828-2.829-2.828 1.414-1.415zm-10 2c-.5304 0-1.0391-.2107-1.4142-.5858s-.5858-.8838-.5858-1.4142.2107-1.0391.5858-1.4142.8838-.5858 1.4142-.5858 1.0391.2107 1.4142.5858.5858.8838.5858 1.4142-.2107 1.0391-.5858 1.4142-.8838.5858-1.4142.5858zm0 8-4.243-4.243 1.415-1.414 2.828 2.829 2.828-2.829 1.415 1.414z" fill="url(#paint0_linear_16_1047)"/></svg>