<svg xmlns="http://www.w3.org/2000/svg" xmlns:xlink="http://www.w3.org/1999/xlink" fill="none" height="512" viewBox="0 0 24 24" width="512"><linearGradient id="paint0_linear_16_949" gradientUnits="userSpaceOnUse" x1="12" x2="12" y1="1.2" y2="22.8"><stop offset="0" stop-color="#3d66df"/><stop offset=".979167" stop-color="#3d66df"/></linearGradient><path d="m5 8h14v-3h-14zm9 11v-9h-9v9zm2 0h3v-9h-3zm-12-16h16c.2652 0 .5196.10536.7071.29289.1875.18754.2929.44189.2929.70711v16c0 .2652-.1054.5196-.2929.7071s-.4419.2929-.7071.2929h-16c-.26522 0-.51957-.1054-.70711-.2929-.18753-.1875-.29289-.4419-.29289-.7071v-16c0-.26522.10536-.51957.29289-.70711.18754-.18753.44189-.29289.70711-.29289z" fill="url(#paint0_linear_16_949)"/></svg>