<?xml version="1.0" encoding="utf-8"?>
<!-- Generator: Adobe Illustrator 23.0.4, SVG Export Plug-In . SVG Version: 6.00 Build 0)  -->
<svg version="1.1" id="Layer_1" xmlns="http://www.w3.org/2000/svg" xmlns:xlink="http://www.w3.org/1999/xlink" x="0px" y="0px"
	 viewBox="0 0 30 30" style="enable-background:new 0 0 30 30;" xml:space="preserve">
<style type="text/css">
	.st0{fill:#FFFFFF;}
</style>
<path id="live-photo-2" class="st0" d="M6.1,5.8c0.3,0,0.6-0.1,0.8-0.3C7.4,5,7.5,4.3,7.1,3.7l0,0c-0.5-0.5-1.3-0.5-1.7,0
	C4.9,4.1,4.8,4.8,5.2,5.3C5.4,5.6,5.8,5.8,6.1,5.8z M2.5,9.2c0.6,0.4,1.4,0.1,1.7-0.5c0.3-0.6,0.1-1.4-0.5-1.7C3.1,6.8,2.3,7,2,7.6
	l0,0C1.6,8.1,1.9,8.9,2.5,9.2L2.5,9.2z M2.5,20.9c-0.6,0.4-0.8,1.1-0.4,1.7c0.4,0.5,1.1,0.7,1.6,0.4c0.6-0.3,0.8-1.1,0.5-1.7
	c-0.3-0.6-1.1-0.8-1.7-0.5C2.5,20.8,2.5,20.8,2.5,20.9z M1,13.9c0.1,0,0.1,0,0.2,0c0.7,0,1.3-0.5,1.3-1.2c0-0.7-0.4-1.2-1.1-1.3
	c-0.7-0.1-1.3,0.4-1.4,1C0,13.1,0.4,13.8,1,13.9z M2.5,17.2c-0.1-0.7-0.8-1.1-1.4-1s-1.1,0.8-1,1.4c0.1,0.6,0.6,1,1.3,1
	c0.1,0,0.1,0,0.2,0C2.2,18.5,2.6,17.9,2.5,17.2L2.5,17.2z M19.3,3.3c0.1,0.1,0.3,0.1,0.4,0.1c0.5,0,1-0.3,1.2-0.8
	c0.2-0.7-0.1-1.4-0.8-1.6c-0.7-0.2-1.4,0.1-1.6,0.8C18.3,2.3,18.7,3.1,19.3,3.3z M23.8,5.8c0.4,0,0.7-0.2,1-0.4
	c0.4-0.5,0.4-1.3-0.2-1.7c-0.5-0.4-1.3-0.4-1.7,0.2l0,0C22.4,4.3,22.5,5,23,5.5C23.3,5.6,23.5,5.8,23.8,5.8z M15,2.5
	c0.4,0,0.7-0.1,0.9-0.4c0.2-0.2,0.4-0.5,0.4-0.9s-0.1-0.7-0.4-0.9c-0.5-0.5-1.3-0.5-1.8,0c-0.2,0.2-0.4,0.5-0.4,0.9s0.1,0.7,0.4,0.9
	C14.3,2.4,14.6,2.5,15,2.5z M10.3,3.4c0.2,0,0.3,0,0.4-0.1c0.6-0.2,0.9-1,0.7-1.6c-0.2-0.6-1-0.9-1.6-0.7C9.2,1.3,8.9,2,9.1,2.6
	C9.3,3.1,9.8,3.4,10.3,3.4z M27.5,12.9c0.1,0.6,0.6,1,1.2,1c0.1,0,0.2,0,0.2,0c0.7-0.1,1.1-0.8,1-1.4s-0.8-1.1-1.4-1l0,0
	C27.8,11.5,27.4,12.2,27.5,12.9C27.5,12.8,27.5,12.9,27.5,12.9z M15,5C9.5,5,5,9.5,5,15s4.5,10,10,10s10-4.5,10-10S20.5,5,15,5z
	 M15,22.5c-4.1,0-7.5-3.4-7.5-7.5s3.4-7.5,7.5-7.5s7.5,3.4,7.5,7.5S19.1,22.5,15,22.5z M26.9,9.4c0.2,0,0.4-0.1,0.6-0.2
	c0.6-0.4,0.8-1.1,0.4-1.7c-0.4-0.5-1.1-0.7-1.6-0.4c-0.6,0.4-0.8,1.1-0.5,1.7C26,9.2,26.4,9.4,26.9,9.4z M23,24.6
	c-0.5,0.4-0.6,1.2-0.2,1.7l0,0c0.4,0.5,1.2,0.6,1.7,0.2c0,0,0,0,0.1,0c0.5-0.4,0.6-1.2,0.2-1.7l0,0C24.3,24.2,23.6,24.2,23,24.6
	L23,24.6z M5.2,24.7c-0.4,0.5-0.4,1.3,0.2,1.7l0,0c0.2,0.2,0.5,0.3,0.8,0.3c0.7,0,1.3-0.6,1.3-1.3c0-0.7-0.6-1.3-1.3-1.3
	C5.8,24.3,5.4,24.4,5.2,24.7z M27.5,20.8c-0.6-0.4-1.3-0.2-1.7,0.4l0,0c-0.4,0.6-0.1,1.4,0.4,1.7l0,0c0.6,0.4,1.4,0.1,1.7-0.5
	C28.3,21.9,28.1,21.2,27.5,20.8z M29,16.2c-0.7-0.1-1.3,0.4-1.4,1l0,0c-0.1,0.7,0.4,1.3,1,1.4c0.1,0,0.1,0,0.2,0
	c0.7,0,1.3-0.6,1.2-1.3C29.9,16.8,29.5,16.3,29,16.2z M15.9,27.9c-0.5-0.5-1.3-0.5-1.8,0c-0.1,0.1-0.2,0.2-0.2,0.4
	c-0.1,0.3-0.1,0.7,0,1c0.1,0.2,0.2,0.3,0.2,0.4c0.5,0.5,1.3,0.5,1.8,0c0.1-0.1,0.2-0.2,0.2-0.4c0.1-0.3,0.1-0.7,0-1
	C16.1,28.2,16,28,15.9,27.9z M10.7,26.8c-0.7-0.2-1.4,0.1-1.6,0.7c-0.2,0.7,0.1,1.4,0.7,1.6l0,0c0.1,0.1,0.3,0.1,0.4,0.1
	c0.7,0,1.3-0.5,1.3-1.3C11.6,27.4,11.2,27,10.7,26.8z M15,10c-2.8,0-5,2.2-5,5s2.2,5,5,5s5-2.2,5-5S17.8,10,15,10z M15,16.3
	c-0.7,0-1.3-0.5-1.3-1.3c0-0.7,0.5-1.3,1.3-1.3s1.3,0.5,1.3,1.3C16.3,15.8,15.7,16.3,15,16.3z M19.3,26.8c-0.7,0.2-1,1-0.7,1.6
	c0.2,0.5,0.7,0.8,1.2,0.8c0.1,0,0.3,0,0.4-0.1c0.7-0.2,1.1-0.9,0.8-1.6c-0.2-0.7-0.9-1.1-1.6-0.8C19.4,26.7,19.4,26.7,19.3,26.8z"/>
</svg>
