<svg fill="none" height="512" viewBox="0 0 24 24" width="512" xmlns="http://www.w3.org/2000/svg" xmlns:xlink="http://www.w3.org/1999/xlink"><linearGradient id="paint0_linear_16_971" gradientUnits="userSpaceOnUse" x1="11.999" x2="11.999" y1=".617" y2="23.382"><stop offset="0" stop-color="#ce9ffc"/><stop offset=".979167" stop-color="#7367f0"/></linearGradient><path d="m7.04996 14.1209-2.12 2.122 2.828 2.828 11.31304-11.31395-2.828-2.827-2.123 2.12 1.415 1.414-1.415 1.416-1.414-1.415-1.414 1.415 1.414 1.41395-1.414 1.414-1.41404-1.414-1.415 1.414 1.415 1.414-1.415 1.415-1.413-1.417zm9.90004-11.31295 4.242 4.242c.1874.18752.2927.44183.2927.707 0 .26516-.1053.51947-.2927.707l-12.72804 12.72795c-.18753.1875-.44184.2928-.707.2928-.26517 0-.51947-.1053-.707-.2928l-4.242-4.242c-.18747-.1875-.29279-.4418-.29279-.707 0-.2651.10532-.5194.29279-.707l12.72804-12.72795c.1875-.18747.4418-.29279.707-.29279.2651 0 .5194.10532.707.29279zm-2.83 15.55495 1.415-1.414 2.242 2.243h1.414v-1.414l-2.242-2.243 1.414-1.414 2.637 2.636v4.243h-4.242l-2.637-2.637zm-8.48404-8.48495-2.829-2.828c-.09298-.09288-.16674-.20316-.21706-.32456-.05033-.1214-.07623-.25153-.07623-.38294 0-.13142.0259-.26155.07623-.38294.05032-.1214.12408-.23169.21706-.32456l2.829-2.828c.18753-.18747.44183-.29279.707-.29279.26516 0 .51947.10532.707.29279l2.83 2.828-1.416 1.415-2.121-2.122-1.414 1.415 2.121 2.12z" fill="url(#paint0_linear_16_971)"/></svg>