<?xml version="1.0" encoding="utf-8"?>
<!-- Generator: Adobe Illustrator 23.0.4, SVG Export Plug-In . SVG Version: 6.00 Build 0)  -->
<svg version="1.1" id="Layer_1" xmlns="http://www.w3.org/2000/svg" xmlns:xlink="http://www.w3.org/1999/xlink" x="0px" y="0px"
	 viewBox="0 0 30 27" style="enable-background:new 0 0 30 27;" xml:space="preserve">
<style type="text/css">
	.st0{fill:#FFFFFF;}
</style>
<path id="Combined-Shape" class="st0" d="M7.1,2.8C7.6,1.2,9,0,10.8,0h8.4c1.7,0,3.2,1.2,3.6,2.8h3.4c2.1,0,3.8,1.7,3.8,3.8v13.6
	c0,2.1-1.7,3.8-3.8,3.8h-3.6c-0.6,1.4-1.9,2.3-3.5,2.3h-8.4c-1.6,0-2.9-1-3.5-2.3H3.8c-2.1,0-3.8-1.7-3.8-3.8V6.6
	c0-2.1,1.7-3.8,3.8-3.8H7.1z M7,4.7H3.8c-1,0-1.9,0.8-1.9,1.9v13.6c0,1,0.8,1.9,1.9,1.9H7V4.7z M8.9,3.8v18.8c0,1,0.8,1.9,1.9,1.9
	h8.4c1,0,1.9-0.8,1.9-1.9V3.8c0-1-0.8-1.9-1.9-1.9h-8.4C9.7,1.9,8.9,2.7,8.9,3.8z M23,4.7V22h3.3c1,0,1.9-0.8,1.9-1.9V6.6
	c0-1-0.8-1.9-1.9-1.9H23z M15,23.4c-0.1,0-0.1,0-0.2,0c-0.1,0-0.1,0-0.2-0.1c-0.1,0-0.1-0.1-0.2-0.1c-0.1,0-0.1-0.1-0.1-0.1
	c0,0-0.1-0.1-0.1-0.1c0,0-0.1-0.1-0.1-0.2c0-0.1,0-0.1-0.1-0.2c0-0.1,0-0.1,0-0.2c0-0.2,0.1-0.5,0.3-0.7c0,0,0.1-0.1,0.1-0.1
	c0.1,0,0.1-0.1,0.2-0.1c0.1,0,0.1,0,0.2-0.1c0.1,0,0.2,0,0.4,0c0.1,0,0.1,0,0.2,0.1c0.1,0,0.1,0.1,0.2,0.1c0.1,0,0.1,0.1,0.1,0.1
	c0.2,0.2,0.3,0.4,0.3,0.7C15.9,23,15.5,23.4,15,23.4z"/>
</svg>
